<svg width="111" height="44" viewBox="0 0 111 44" fill="none" xmlns="http://www.w3.org/2000/svg">
<g filter="url(#filter0_nf_60_148)">
<mask id="path-1-outside-1_60_148" maskUnits="userSpaceOnUse" x="0.00109863" y="1" width="110" height="42" fill="black">
<rect fill="white" x="0.00109863" y="1" width="110" height="42"/>
<path d="M13.9523 29.0209C14.5001 28.5784 13.9523 16.3009 13.9523 16.3009H9.20028C9.20028 16.3009 8.75212 13.7499 9.20028 12.2209C10.7293 7.00424 29.9584 9.69252 29.9584 9.69252L23.1203 16.3009H18.3923V29.0209C18.3923 29.0209 13.4044 29.4633 13.9523 29.0209Z"/>
<path d="M29.9584 29.0209L29.8384 26.2609V23.1409C29.8384 22.5809 29.8064 22.0769 29.7424 21.6289C29.6784 21.1809 29.5184 20.8289 29.2624 20.5729C29.0064 20.3169 28.5904 20.1889 28.0144 20.1889C27.6144 20.1889 27.2864 20.2849 27.0304 20.4769C26.7744 20.6689 26.5584 20.8929 26.3824 21.1489L22.6144 19.9489C22.9504 19.2929 23.3664 18.7249 23.8624 18.2449C24.3744 17.7649 24.9664 17.3969 25.6384 17.1409C26.3264 16.8689 27.0864 16.7329 27.9184 16.7329C29.1984 16.7329 30.2944 16.9649 31.2064 17.4289C32.1184 17.8929 32.8144 18.5409 33.2944 19.3729C33.7744 20.2049 34.0144 21.1729 34.0144 22.2769V29.0209H29.9584ZM26.7664 29.3089C25.3744 29.3089 24.2864 28.9969 23.5024 28.3729C22.7344 27.7329 22.3504 26.8209 22.3504 25.6369C22.3504 24.3889 22.7344 23.4689 23.5024 22.8769C24.2864 22.2689 25.3744 21.9649 26.7664 21.9649H30.2944V24.4369H28.4704C27.9104 24.4369 27.4784 24.5329 27.1744 24.7249C26.8704 24.9169 26.7184 25.1889 26.7184 25.5409C26.7184 25.7809 26.8224 25.9649 27.0304 26.0929C27.2384 26.2209 27.5264 26.2849 27.8944 26.2849C28.2944 26.2849 28.6384 26.2129 28.9264 26.0689C29.2144 25.9089 29.4384 25.6929 29.5984 25.4209C29.7584 25.1329 29.8384 24.8049 29.8384 24.4369H30.9664C30.9664 25.9889 30.5984 27.1889 29.8624 28.0369C29.1264 28.8849 28.0944 29.3089 26.7664 29.3089Z"/>
<path d="M35.212 29.0209L40.156 22.2049L43.564 17.0209H48.652L43.684 23.9089L40.348 29.0209H35.212ZM43.828 29.0209L40.54 23.9089L35.524 17.0209H40.612L44.02 22.2049L48.94 29.0209H43.828Z"/>
<path d="M64.3063 29.3089C62.5463 29.3089 60.9863 28.9409 59.6263 28.2049C58.2823 27.4529 57.2263 26.4289 56.4583 25.1329C55.6903 23.8209 55.3063 22.3249 55.3063 20.6449C55.3063 18.9489 55.6903 17.4529 56.4583 16.1569C57.2263 14.8449 58.2823 13.8209 59.6263 13.0849C60.9703 12.3329 62.5143 11.9569 64.2583 11.9569C66.0183 11.9569 67.5703 12.3329 68.9143 13.0849C70.2583 13.8209 71.3143 14.8449 72.0823 16.1569C72.8503 17.4529 73.2343 18.9489 73.2343 20.6449C73.2343 22.3249 72.8503 23.8209 72.0823 25.1329C71.3303 26.4289 70.2823 27.4529 68.9383 28.2049C67.5943 28.9409 66.0503 29.3089 64.3063 29.3089ZM64.3063 25.2289C65.1703 25.2289 65.9303 25.0369 66.5863 24.6529C67.2423 24.2529 67.7543 23.7089 68.1223 23.0209C68.4903 22.3329 68.6743 21.5409 68.6743 20.6449C68.6743 19.7489 68.4823 18.9569 68.0983 18.2689C67.7303 17.5649 67.2103 17.0209 66.5383 16.6369C65.8823 16.2369 65.1223 16.0369 64.2583 16.0369C63.4103 16.0369 62.6503 16.2369 61.9783 16.6369C61.3223 17.0209 60.8023 17.5649 60.4183 18.2689C60.0503 18.9569 59.8663 19.7489 59.8663 20.6449C59.8663 21.5409 60.0583 22.3329 60.4423 23.0209C60.8263 23.7089 61.3463 24.2529 62.0023 24.6529C62.6743 25.0369 63.4423 25.2289 64.3063 25.2289Z"/>
<path d="M80.8393 34.1569C79.7993 34.1569 78.8953 34.1009 78.1273 33.9889C77.3753 33.8769 76.7353 33.7089 76.2073 33.4849C75.6793 33.2769 75.2233 33.0209 74.8393 32.7169L76.5433 29.2849C76.7993 29.4129 77.0953 29.5569 77.4313 29.7169C77.7833 29.8929 78.2153 30.0449 78.7273 30.1729C79.2393 30.3009 79.8713 30.3649 80.6233 30.3649C81.1193 30.3649 81.5593 30.2689 81.9433 30.0769C82.3273 29.8849 82.6233 29.5969 82.8313 29.2129C83.0553 28.8289 83.1673 28.3489 83.1673 27.7729V17.0209H87.4873V27.5809C87.4873 28.9089 87.2313 30.0689 86.7193 31.0609C86.2233 32.0529 85.4793 32.8129 84.4873 33.3409C83.5113 33.8849 82.2953 34.1569 80.8393 34.1569ZM79.7353 28.4449C78.5993 28.4449 77.6233 28.2289 76.8073 27.7969C76.0073 27.3489 75.3913 26.7169 74.9593 25.9009C74.5273 25.0689 74.3113 24.0769 74.3113 22.9249C74.3113 21.6289 74.5273 20.5249 74.9593 19.6129C75.3913 18.6849 76.0073 17.9729 76.8073 17.4769C77.6233 16.9809 78.5993 16.7329 79.7353 16.7329C80.6473 16.7329 81.4313 16.9809 82.0873 17.4769C82.7433 17.9729 83.2393 18.6929 83.5753 19.6369C83.9273 20.5649 84.1033 21.6929 84.1033 23.0209C84.1033 24.1569 83.9273 25.1329 83.5753 25.9489C83.2393 26.7489 82.7433 27.3649 82.0873 27.7969C81.4313 28.2289 80.6473 28.4449 79.7353 28.4449ZM81.0553 24.8689C81.4553 24.8689 81.7913 24.7809 82.0633 24.6049C82.3513 24.4129 82.5673 24.1569 82.7113 23.8369C82.8713 23.5169 82.9513 23.1569 82.9513 22.7569C82.9513 22.3249 82.8713 21.9489 82.7113 21.6289C82.5513 21.3089 82.3273 21.0609 82.0393 20.8849C81.7673 20.7089 81.4313 20.6209 81.0313 20.6209C80.6473 20.6209 80.3113 20.7089 80.0233 20.8849C79.7353 21.0609 79.5113 21.3089 79.3513 21.6289C79.1913 21.9489 79.1033 22.3249 79.0873 22.7569C79.1033 23.1569 79.1913 23.5169 79.3513 23.8369C79.5113 24.1569 79.7353 24.4129 80.0233 24.6049C80.3273 24.7809 80.6713 24.8689 81.0553 24.8689Z"/>
<path d="M96.2336 28.3729L96.5415 26.2609V23.1409C96.5415 22.5809 96.5095 22.0769 96.4455 21.6289C96.3815 21.1809 96.2215 20.8289 95.9655 20.5729C95.7095 20.3169 95.2935 20.1889 94.7175 20.1889C94.3175 20.1889 93.9895 20.2849 93.7335 20.4769C93.4775 20.6689 93.2615 20.8929 93.0855 21.1489L89.3175 19.9489C89.6535 19.2929 90.0695 18.7249 90.5655 18.2449C91.0775 17.7649 91.6695 17.3969 92.3415 17.1409C93.0295 16.8689 93.7895 16.7329 94.6215 16.7329C95.9015 16.7329 96.9975 16.9649 97.9095 17.4289C98.8215 17.8929 99.5175 18.5409 99.9975 19.3729C100.478 20.2049 100.718 21.1729 100.718 22.2769C100.718 22.2769 102.974 27.6635 100.718 29.0209C99.3601 29.8372 96.2336 28.3729 96.2336 28.3729ZM93.4695 29.3089C92.0775 29.3089 90.9895 28.9969 90.2055 28.3729C89.4375 27.7329 89.0535 26.8209 89.0535 25.6369C89.0535 24.3889 89.4375 23.4689 90.2055 22.8769C90.9895 22.2689 92.0775 21.9649 93.4695 21.9649H96.9975V24.4369H95.1735C94.6135 24.4369 94.1815 24.5329 93.8775 24.7249C93.5735 24.9169 93.4215 25.1889 93.4215 25.5409C93.4215 25.7809 93.5255 25.9649 93.7335 26.0929C93.9415 26.2209 94.2295 26.2849 94.5975 26.2849C94.9975 26.2849 95.3415 26.2129 95.6295 26.0689C95.9175 25.9089 96.1415 25.6929 96.3015 25.4209C96.4615 25.1329 96.5415 24.8049 96.5415 24.4369H97.6695C97.6695 25.9889 97.3015 27.1889 96.5655 28.0369C95.8295 28.8849 94.7975 29.3089 93.4695 29.3089Z"/>
</mask>
<path d="M13.9523 29.0209C14.5001 28.5784 13.9523 16.3009 13.9523 16.3009H9.20028C9.20028 16.3009 8.75212 13.7499 9.20028 12.2209C10.7293 7.00424 29.9584 9.69252 29.9584 9.69252L23.1203 16.3009H18.3923V29.0209C18.3923 29.0209 13.4044 29.4633 13.9523 29.0209Z" fill="#00C7BE"/>
<path d="M29.9584 29.0209L29.8384 26.2609V23.1409C29.8384 22.5809 29.8064 22.0769 29.7424 21.6289C29.6784 21.1809 29.5184 20.8289 29.2624 20.5729C29.0064 20.3169 28.5904 20.1889 28.0144 20.1889C27.6144 20.1889 27.2864 20.2849 27.0304 20.4769C26.7744 20.6689 26.5584 20.8929 26.3824 21.1489L22.6144 19.9489C22.9504 19.2929 23.3664 18.7249 23.8624 18.2449C24.3744 17.7649 24.9664 17.3969 25.6384 17.1409C26.3264 16.8689 27.0864 16.7329 27.9184 16.7329C29.1984 16.7329 30.2944 16.9649 31.2064 17.4289C32.1184 17.8929 32.8144 18.5409 33.2944 19.3729C33.7744 20.2049 34.0144 21.1729 34.0144 22.2769V29.0209H29.9584ZM26.7664 29.3089C25.3744 29.3089 24.2864 28.9969 23.5024 28.3729C22.7344 27.7329 22.3504 26.8209 22.3504 25.6369C22.3504 24.3889 22.7344 23.4689 23.5024 22.8769C24.2864 22.2689 25.3744 21.9649 26.7664 21.9649H30.2944V24.4369H28.4704C27.9104 24.4369 27.4784 24.5329 27.1744 24.7249C26.8704 24.9169 26.7184 25.1889 26.7184 25.5409C26.7184 25.7809 26.8224 25.9649 27.0304 26.0929C27.2384 26.2209 27.5264 26.2849 27.8944 26.2849C28.2944 26.2849 28.6384 26.2129 28.9264 26.0689C29.2144 25.9089 29.4384 25.6929 29.5984 25.4209C29.7584 25.1329 29.8384 24.8049 29.8384 24.4369H30.9664C30.9664 25.9889 30.5984 27.1889 29.8624 28.0369C29.1264 28.8849 28.0944 29.3089 26.7664 29.3089Z" fill="#00C7BE"/>
<path d="M35.212 29.0209L40.156 22.2049L43.564 17.0209H48.652L43.684 23.9089L40.348 29.0209H35.212ZM43.828 29.0209L40.54 23.9089L35.524 17.0209H40.612L44.02 22.2049L48.94 29.0209H43.828Z" fill="#00C7BE"/>
<path d="M64.3063 29.3089C62.5463 29.3089 60.9863 28.9409 59.6263 28.2049C58.2823 27.4529 57.2263 26.4289 56.4583 25.1329C55.6903 23.8209 55.3063 22.3249 55.3063 20.6449C55.3063 18.9489 55.6903 17.4529 56.4583 16.1569C57.2263 14.8449 58.2823 13.8209 59.6263 13.0849C60.9703 12.3329 62.5143 11.9569 64.2583 11.9569C66.0183 11.9569 67.5703 12.3329 68.9143 13.0849C70.2583 13.8209 71.3143 14.8449 72.0823 16.1569C72.8503 17.4529 73.2343 18.9489 73.2343 20.6449C73.2343 22.3249 72.8503 23.8209 72.0823 25.1329C71.3303 26.4289 70.2823 27.4529 68.9383 28.2049C67.5943 28.9409 66.0503 29.3089 64.3063 29.3089ZM64.3063 25.2289C65.1703 25.2289 65.9303 25.0369 66.5863 24.6529C67.2423 24.2529 67.7543 23.7089 68.1223 23.0209C68.4903 22.3329 68.6743 21.5409 68.6743 20.6449C68.6743 19.7489 68.4823 18.9569 68.0983 18.2689C67.7303 17.5649 67.2103 17.0209 66.5383 16.6369C65.8823 16.2369 65.1223 16.0369 64.2583 16.0369C63.4103 16.0369 62.6503 16.2369 61.9783 16.6369C61.3223 17.0209 60.8023 17.5649 60.4183 18.2689C60.0503 18.9569 59.8663 19.7489 59.8663 20.6449C59.8663 21.5409 60.0583 22.3329 60.4423 23.0209C60.8263 23.7089 61.3463 24.2529 62.0023 24.6529C62.6743 25.0369 63.4423 25.2289 64.3063 25.2289Z" fill="white"/>
<path d="M80.8393 34.1569C79.7993 34.1569 78.8953 34.1009 78.1273 33.9889C77.3753 33.8769 76.7353 33.7089 76.2073 33.4849C75.6793 33.2769 75.2233 33.0209 74.8393 32.7169L76.5433 29.2849C76.7993 29.4129 77.0953 29.5569 77.4313 29.7169C77.7833 29.8929 78.2153 30.0449 78.7273 30.1729C79.2393 30.3009 79.8713 30.3649 80.6233 30.3649C81.1193 30.3649 81.5593 30.2689 81.9433 30.0769C82.3273 29.8849 82.6233 29.5969 82.8313 29.2129C83.0553 28.8289 83.1673 28.3489 83.1673 27.7729V17.0209H87.4873V27.5809C87.4873 28.9089 87.2313 30.0689 86.7193 31.0609C86.2233 32.0529 85.4793 32.8129 84.4873 33.3409C83.5113 33.8849 82.2953 34.1569 80.8393 34.1569ZM79.7353 28.4449C78.5993 28.4449 77.6233 28.2289 76.8073 27.7969C76.0073 27.3489 75.3913 26.7169 74.9593 25.9009C74.5273 25.0689 74.3113 24.0769 74.3113 22.9249C74.3113 21.6289 74.5273 20.5249 74.9593 19.6129C75.3913 18.6849 76.0073 17.9729 76.8073 17.4769C77.6233 16.9809 78.5993 16.7329 79.7353 16.7329C80.6473 16.7329 81.4313 16.9809 82.0873 17.4769C82.7433 17.9729 83.2393 18.6929 83.5753 19.6369C83.9273 20.5649 84.1033 21.6929 84.1033 23.0209C84.1033 24.1569 83.9273 25.1329 83.5753 25.9489C83.2393 26.7489 82.7433 27.3649 82.0873 27.7969C81.4313 28.2289 80.6473 28.4449 79.7353 28.4449ZM81.0553 24.8689C81.4553 24.8689 81.7913 24.7809 82.0633 24.6049C82.3513 24.4129 82.5673 24.1569 82.7113 23.8369C82.8713 23.5169 82.9513 23.1569 82.9513 22.7569C82.9513 22.3249 82.8713 21.9489 82.7113 21.6289C82.5513 21.3089 82.3273 21.0609 82.0393 20.8849C81.7673 20.7089 81.4313 20.6209 81.0313 20.6209C80.6473 20.6209 80.3113 20.7089 80.0233 20.8849C79.7353 21.0609 79.5113 21.3089 79.3513 21.6289C79.1913 21.9489 79.1033 22.3249 79.0873 22.7569C79.1033 23.1569 79.1913 23.5169 79.3513 23.8369C79.5113 24.1569 79.7353 24.4129 80.0233 24.6049C80.3273 24.7809 80.6713 24.8689 81.0553 24.8689Z" fill="white"/>
<path d="M96.2336 28.3729L96.5415 26.2609V23.1409C96.5415 22.5809 96.5095 22.0769 96.4455 21.6289C96.3815 21.1809 96.2215 20.8289 95.9655 20.5729C95.7095 20.3169 95.2935 20.1889 94.7175 20.1889C94.3175 20.1889 93.9895 20.2849 93.7335 20.4769C93.4775 20.6689 93.2615 20.8929 93.0855 21.1489L89.3175 19.9489C89.6535 19.2929 90.0695 18.7249 90.5655 18.2449C91.0775 17.7649 91.6695 17.3969 92.3415 17.1409C93.0295 16.8689 93.7895 16.7329 94.6215 16.7329C95.9015 16.7329 96.9975 16.9649 97.9095 17.4289C98.8215 17.8929 99.5175 18.5409 99.9975 19.3729C100.478 20.2049 100.718 21.1729 100.718 22.2769C100.718 22.2769 102.974 27.6635 100.718 29.0209C99.3601 29.8372 96.2336 28.3729 96.2336 28.3729ZM93.4695 29.3089C92.0775 29.3089 90.9895 28.9969 90.2055 28.3729C89.4375 27.7329 89.0535 26.8209 89.0535 25.6369C89.0535 24.3889 89.4375 23.4689 90.2055 22.8769C90.9895 22.2689 92.0775 21.9649 93.4695 21.9649H96.9975V24.4369H95.1735C94.6135 24.4369 94.1815 24.5329 93.8775 24.7249C93.5735 24.9169 93.4215 25.1889 93.4215 25.5409C93.4215 25.7809 93.5255 25.9649 93.7335 26.0929C93.9415 26.2209 94.2295 26.2849 94.5975 26.2849C94.9975 26.2849 95.3415 26.2129 95.6295 26.0689C95.9175 25.9089 96.1415 25.6929 96.3015 25.4209C96.4615 25.1329 96.5415 24.8049 96.5415 24.4369H97.6695C97.6695 25.9889 97.3015 27.1889 96.5655 28.0369C95.8295 28.8849 94.7975 29.3089 93.4695 29.3089Z" fill="white"/>
<path d="M13.9523 29.0209C14.5001 28.5784 13.9523 16.3009 13.9523 16.3009H9.20028C9.20028 16.3009 8.75212 13.7499 9.20028 12.2209C10.7293 7.00424 29.9584 9.69252 29.9584 9.69252L23.1203 16.3009H18.3923V29.0209C18.3923 29.0209 13.4044 29.4633 13.9523 29.0209Z" stroke="#2C59C3" stroke-width="16" mask="url(#path-1-outside-1_60_148)"/>
<path d="M29.9584 29.0209L29.8384 26.2609V23.1409C29.8384 22.5809 29.8064 22.0769 29.7424 21.6289C29.6784 21.1809 29.5184 20.8289 29.2624 20.5729C29.0064 20.3169 28.5904 20.1889 28.0144 20.1889C27.6144 20.1889 27.2864 20.2849 27.0304 20.4769C26.7744 20.6689 26.5584 20.8929 26.3824 21.1489L22.6144 19.9489C22.9504 19.2929 23.3664 18.7249 23.8624 18.2449C24.3744 17.7649 24.9664 17.3969 25.6384 17.1409C26.3264 16.8689 27.0864 16.7329 27.9184 16.7329C29.1984 16.7329 30.2944 16.9649 31.2064 17.4289C32.1184 17.8929 32.8144 18.5409 33.2944 19.3729C33.7744 20.2049 34.0144 21.1729 34.0144 22.2769V29.0209H29.9584ZM26.7664 29.3089C25.3744 29.3089 24.2864 28.9969 23.5024 28.3729C22.7344 27.7329 22.3504 26.8209 22.3504 25.6369C22.3504 24.3889 22.7344 23.4689 23.5024 22.8769C24.2864 22.2689 25.3744 21.9649 26.7664 21.9649H30.2944V24.4369H28.4704C27.9104 24.4369 27.4784 24.5329 27.1744 24.7249C26.8704 24.9169 26.7184 25.1889 26.7184 25.5409C26.7184 25.7809 26.8224 25.9649 27.0304 26.0929C27.2384 26.2209 27.5264 26.2849 27.8944 26.2849C28.2944 26.2849 28.6384 26.2129 28.9264 26.0689C29.2144 25.9089 29.4384 25.6929 29.5984 25.4209C29.7584 25.1329 29.8384 24.8049 29.8384 24.4369H30.9664C30.9664 25.9889 30.5984 27.1889 29.8624 28.0369C29.1264 28.8849 28.0944 29.3089 26.7664 29.3089Z" stroke="#2C59C3" stroke-width="16" mask="url(#path-1-outside-1_60_148)"/>
<path d="M35.212 29.0209L40.156 22.2049L43.564 17.0209H48.652L43.684 23.9089L40.348 29.0209H35.212ZM43.828 29.0209L40.54 23.9089L35.524 17.0209H40.612L44.02 22.2049L48.94 29.0209H43.828Z" stroke="#2C59C3" stroke-width="16" mask="url(#path-1-outside-1_60_148)"/>
<path d="M64.3063 29.3089C62.5463 29.3089 60.9863 28.9409 59.6263 28.2049C58.2823 27.4529 57.2263 26.4289 56.4583 25.1329C55.6903 23.8209 55.3063 22.3249 55.3063 20.6449C55.3063 18.9489 55.6903 17.4529 56.4583 16.1569C57.2263 14.8449 58.2823 13.8209 59.6263 13.0849C60.9703 12.3329 62.5143 11.9569 64.2583 11.9569C66.0183 11.9569 67.5703 12.3329 68.9143 13.0849C70.2583 13.8209 71.3143 14.8449 72.0823 16.1569C72.8503 17.4529 73.2343 18.9489 73.2343 20.6449C73.2343 22.3249 72.8503 23.8209 72.0823 25.1329C71.3303 26.4289 70.2823 27.4529 68.9383 28.2049C67.5943 28.9409 66.0503 29.3089 64.3063 29.3089ZM64.3063 25.2289C65.1703 25.2289 65.9303 25.0369 66.5863 24.6529C67.2423 24.2529 67.7543 23.7089 68.1223 23.0209C68.4903 22.3329 68.6743 21.5409 68.6743 20.6449C68.6743 19.7489 68.4823 18.9569 68.0983 18.2689C67.7303 17.5649 67.2103 17.0209 66.5383 16.6369C65.8823 16.2369 65.1223 16.0369 64.2583 16.0369C63.4103 16.0369 62.6503 16.2369 61.9783 16.6369C61.3223 17.0209 60.8023 17.5649 60.4183 18.2689C60.0503 18.9569 59.8663 19.7489 59.8663 20.6449C59.8663 21.5409 60.0583 22.3329 60.4423 23.0209C60.8263 23.7089 61.3463 24.2529 62.0023 24.6529C62.6743 25.0369 63.4423 25.2289 64.3063 25.2289Z" stroke="#2C59C3" stroke-width="16" mask="url(#path-1-outside-1_60_148)"/>
<path d="M80.8393 34.1569C79.7993 34.1569 78.8953 34.1009 78.1273 33.9889C77.3753 33.8769 76.7353 33.7089 76.2073 33.4849C75.6793 33.2769 75.2233 33.0209 74.8393 32.7169L76.5433 29.2849C76.7993 29.4129 77.0953 29.5569 77.4313 29.7169C77.7833 29.8929 78.2153 30.0449 78.7273 30.1729C79.2393 30.3009 79.8713 30.3649 80.6233 30.3649C81.1193 30.3649 81.5593 30.2689 81.9433 30.0769C82.3273 29.8849 82.6233 29.5969 82.8313 29.2129C83.0553 28.8289 83.1673 28.3489 83.1673 27.7729V17.0209H87.4873V27.5809C87.4873 28.9089 87.2313 30.0689 86.7193 31.0609C86.2233 32.0529 85.4793 32.8129 84.4873 33.3409C83.5113 33.8849 82.2953 34.1569 80.8393 34.1569ZM79.7353 28.4449C78.5993 28.4449 77.6233 28.2289 76.8073 27.7969C76.0073 27.3489 75.3913 26.7169 74.9593 25.9009C74.5273 25.0689 74.3113 24.0769 74.3113 22.9249C74.3113 21.6289 74.5273 20.5249 74.9593 19.6129C75.3913 18.6849 76.0073 17.9729 76.8073 17.4769C77.6233 16.9809 78.5993 16.7329 79.7353 16.7329C80.6473 16.7329 81.4313 16.9809 82.0873 17.4769C82.7433 17.9729 83.2393 18.6929 83.5753 19.6369C83.9273 20.5649 84.1033 21.6929 84.1033 23.0209C84.1033 24.1569 83.9273 25.1329 83.5753 25.9489C83.2393 26.7489 82.7433 27.3649 82.0873 27.7969C81.4313 28.2289 80.6473 28.4449 79.7353 28.4449ZM81.0553 24.8689C81.4553 24.8689 81.7913 24.7809 82.0633 24.6049C82.3513 24.4129 82.5673 24.1569 82.7113 23.8369C82.8713 23.5169 82.9513 23.1569 82.9513 22.7569C82.9513 22.3249 82.8713 21.9489 82.7113 21.6289C82.5513 21.3089 82.3273 21.0609 82.0393 20.8849C81.7673 20.7089 81.4313 20.6209 81.0313 20.6209C80.6473 20.6209 80.3113 20.7089 80.0233 20.8849C79.7353 21.0609 79.5113 21.3089 79.3513 21.6289C79.1913 21.9489 79.1033 22.3249 79.0873 22.7569C79.1033 23.1569 79.1913 23.5169 79.3513 23.8369C79.5113 24.1569 79.7353 24.4129 80.0233 24.6049C80.3273 24.7809 80.6713 24.8689 81.0553 24.8689Z" stroke="#2C59C3" stroke-width="16" mask="url(#path-1-outside-1_60_148)"/>
<path d="M96.2336 28.3729L96.5415 26.2609V23.1409C96.5415 22.5809 96.5095 22.0769 96.4455 21.6289C96.3815 21.1809 96.2215 20.8289 95.9655 20.5729C95.7095 20.3169 95.2935 20.1889 94.7175 20.1889C94.3175 20.1889 93.9895 20.2849 93.7335 20.4769C93.4775 20.6689 93.2615 20.8929 93.0855 21.1489L89.3175 19.9489C89.6535 19.2929 90.0695 18.7249 90.5655 18.2449C91.0775 17.7649 91.6695 17.3969 92.3415 17.1409C93.0295 16.8689 93.7895 16.7329 94.6215 16.7329C95.9015 16.7329 96.9975 16.9649 97.9095 17.4289C98.8215 17.8929 99.5175 18.5409 99.9975 19.3729C100.478 20.2049 100.718 21.1729 100.718 22.2769C100.718 22.2769 102.974 27.6635 100.718 29.0209C99.3601 29.8372 96.2336 28.3729 96.2336 28.3729ZM93.4695 29.3089C92.0775 29.3089 90.9895 28.9969 90.2055 28.3729C89.4375 27.7329 89.0535 26.8209 89.0535 25.6369C89.0535 24.3889 89.4375 23.4689 90.2055 22.8769C90.9895 22.2689 92.0775 21.9649 93.4695 21.9649H96.9975V24.4369H95.1735C94.6135 24.4369 94.1815 24.5329 93.8775 24.7249C93.5735 24.9169 93.4215 25.1889 93.4215 25.5409C93.4215 25.7809 93.5255 25.9649 93.7335 26.0929C93.9415 26.2209 94.2295 26.2849 94.5975 26.2849C94.9975 26.2849 95.3415 26.2129 95.6295 26.0689C95.9175 25.9089 96.1415 25.6929 96.3015 25.4209C96.4615 25.1329 96.5415 24.8049 96.5415 24.4369H97.6695C97.6695 25.9889 97.3015 27.1889 96.5655 28.0369C95.8295 28.8849 94.7975 29.3089 93.4695 29.3089Z" stroke="#2C59C3" stroke-width="16" mask="url(#path-1-outside-1_60_148)"/>
</g>
<defs>
<filter id="filter0_nf_60_148" x="0" y="0" width="110.72" height="43.1569" filterUnits="userSpaceOnUse" color-interpolation-filters="sRGB">
<feFlood flood-opacity="0" result="BackgroundImageFix"/>
<feBlend mode="normal" in="SourceGraphic" in2="BackgroundImageFix" result="shape"/>
<feTurbulence type="fractalNoise" baseFrequency="2 2" stitchTiles="stitch" numOctaves="3" result="noise" seed="2181" />
<feColorMatrix in="noise" type="luminanceToAlpha" result="alphaNoise" />
<feComponentTransfer in="alphaNoise" result="coloredNoise1">
<feFuncA type="discrete" tableValues="1 1 1 1 1 1 1 1 1 1 1 1 1 1 1 1 1 1 1 1 1 1 1 1 1 1 1 1 1 1 1 1 1 1 1 1 1 1 1 1 1 1 1 1 1 1 1 1 1 1 1 0 0 0 0 0 0 0 0 0 0 0 0 0 0 0 0 0 0 0 0 0 0 0 0 0 0 0 0 0 0 0 0 0 0 0 0 0 0 0 0 0 0 0 0 0 0 0 0 0 "/>
</feComponentTransfer>
<feComposite operator="in" in2="shape" in="coloredNoise1" result="noise1Clipped" />
<feComponentTransfer in="alphaNoise" result="coloredNoise2">
<feFuncA type="discrete" tableValues="0 0 0 0 0 0 0 0 0 0 0 0 0 0 0 0 0 0 0 0 0 0 0 0 0 0 0 0 0 0 0 0 0 0 0 0 0 0 0 0 0 0 0 0 0 0 0 0 0 1 1 1 1 1 1 1 1 1 1 1 1 1 1 1 1 1 1 1 1 1 1 1 1 1 1 1 1 1 1 1 1 1 1 1 1 1 1 1 1 1 1 1 1 1 1 1 1 1 1 1 "/>
</feComponentTransfer>
<feComposite operator="in" in2="shape" in="coloredNoise2" result="noise2Clipped" />
<feFlood flood-color="rgba(0, 0, 0, 0.1)" result="color1Flood" />
<feComposite operator="in" in2="noise1Clipped" in="color1Flood" result="color1" />
<feFlood flood-color="rgba(255, 255, 255, 0.15)" result="color2Flood" />
<feComposite operator="in" in2="noise2Clipped" in="color2Flood" result="color2" />
<feMerge result="effect1_noise_60_148">
<feMergeNode in="shape" />
<feMergeNode in="color1" />
<feMergeNode in="color2" />
</feMerge>
<feGaussianBlur stdDeviation="0" result="effect2_foregroundBlur_60_148"/>
</filter>
</defs>
</svg>
